PathFileType  4	(X/Y/Z) C:\Users\antoi\Documents\MyRepositories\mobilecap\ResultsAnalysis
DataRate	CameraRate	NumFrames	NumMarkers	Units	OrigDataRate	OrigDataStartFrame	OrigNumFrames
100.0	100.0	7	51	mm	100.0	204	271
Frame#	Time	r_knee			r_shank_antsup			r_ankle			r_calc			r_5meta			r_toe			L_knee			L_shank_antsup			L_ankle			L_calc			L_5meta			L_toe			r_sh2			r_sh3			r_sh4			L_sh2			L_sh3			r_thigh1			r_thigh2			r_thigh3			r_thigh4			r_thigh5			L_thigh1			L_thigh2			L_thigh3			L_thigh4			r.ASIS			r.PSIS			L.ASIS			L.PSIS			C7			R_Shoulder			L_Shoulder			R_Sternum			L_Sternum			R_humerus			R_elbow_med			R_elbow_lat			R_forearm			R_wrist_radius			R_wrist_ulna			L_humerus			L_elbow_med			L_elbow_lat			L_forearm			L_wrist_radius			L_wrist_ulna			R_HJC			L_HJC			R_HJC_reg			L_HJC_reg			
		X1	Y1	Z1	X2	Y2	Z2	X3	Y3	Z3	X4	Y4	Z4	X5	Y5	Z5	X6	Y6	Z6	X7	Y7	Z7	X8	Y8	Z8	X9	Y9	Z9	X10	Y10	Z10	X11	Y11	Z11	X12	Y12	Z12	X13	Y13	Z13	X14	Y14	Z14	X15	Y15	Z15	X16	Y16	Z16	X17	Y17	Z17	X18	Y18	Z18	X19	Y19	Z19	X20	Y20	Z20	X21	Y21	Z21	X22	Y22	Z22	X23	Y23	Z23	X24	Y24	Z24	X25	Y25	Z25	X26	Y26	Z26	X27	Y27	Z27	X28	Y28	Z28	X29	Y29	Z29	X30	Y30	Z30	X31	Y31	Z31	X32	Y32	Z32	X33	Y33	Z33	X34	Y34	Z34	X35	Y35	Z35	X36	Y36	Z36	X37	Y37	Z37	X38	Y38	Z38	X39	Y39	Z39	X40	Y40	Z40	X41	Y41	Z41	X42	Y42	Z42	X43	Y43	Z43	X44	Y44	Z44	X45	Y45	Z45	X46	Y46	Z46	X47	Y47	Z47	X48	Y48	Z48	X49	Y49	Z49	X50	Y50	Z50	X51	Y51	Z51	

204	2.03000000	-120.19677	429.05444	-390.01058	-148.05385	400.53998	-361.67637	-324.95313	100.76108	-406.24995	-394.60861	60.90491	-458.40542	-227.55294	40.15254	-344.64696	-176.71216	57.05790	-392.43207	-128.37212	431.65715	-784.03427	-117.54339	348.65923	-803.59975	-317.36579	100.28184	-763.22920	-392.31932	61.92810	-715.39751	-216.34943	39.86075	-800.08601	-166.89488	56.59776	-747.33786	-206.57571	300.67766	-355.91350	-82.15255	368.35194	-384.62260	-140.04835	269.54475	-400.64228	-189.25225	400.79553	-802.98373	-249.52656	295.45413	-798.77189	-260.19385	677.75743	-479.72240	-170.60848	615.47240	-451.59461	-174.78272	592.34481	-388.51480	-306.32469	648.74957	-382.00906	-221.76206	572.19710	-364.94415	-323.18294	668.77263	-771.81995	-228.41179	564.58892	-797.22778	-405.55594	591.97742	-766.18251	-307.85332	492.41361	-755.35695	-299.99642	746.01537	-467.01041	-474.41803	824.69910	-538.35477	-313.42870	725.35441	-705.31766	-479.56772	821.55798	-635.67059	-165.84459	1195.93245	-612.89304	-116.90556	1129.68848	-449.56243	-103.22686	1106.46317	-757.56562	-97.74156	1067.01364	-583.14424	-102.49272	1061.83578	-614.61038	-125.02467	920.88975	-328.88626	-171.22514	811.21150	-343.41858	-141.50221	832.19204	-286.22169	-17.88176	753.12651	-280.62284	68.13614	701.52559	-300.35249	46.14160	672.51460	-274.95526	-91.59921	894.35933	-854.70482	-116.12770	773.47226	-824.17506	-94.36673	787.50171	-881.02215	34.85894	714.83155	-861.30090	125.12678	674.01575	-822.79643	102.98427	634.05590	-826.10228	-393.83725	685.08433	-494.53354	-413.43546	683.50895	-684.18830	-387.97242	687.80428	-493.79264	-396.32112	682.71119	-651.61167	
205	2.04000000	-123.03935	432.45517	-391.22767	-150.43987	403.05089	-362.25816	-324.93645	100.83086	-405.88087	-394.64093	61.20539	-457.94227	-227.52005	40.02530	-344.56496	-176.69828	56.86044	-392.37337	-131.50400	434.34964	-784.48567	-120.42525	350.96798	-804.35202	-317.33333	100.15149	-763.71749	-392.27672	62.00673	-715.44430	-216.35640	39.73535	-800.23344	-166.89550	56.49547	-747.44278	-207.56405	302.40056	-356.21045	-84.43293	371.51325	-386.51879	-141.31047	271.88352	-401.54261	-192.77754	402.04474	-804.11173	-252.30667	295.65418	-800.42995	-255.85376	685.66410	-480.64756	-168.35705	620.46510	-452.45571	-173.60641	598.24478	-389.34691	-303.13431	658.00548	-382.42502	-221.12591	579.80678	-364.67702	-320.84277	678.41300	-771.81560	-229.01635	571.70754	-797.75581	-405.18486	603.65442	-765.04646	-310.14515	501.52394	-756.13407	-296.58691	758.67528	-466.61047	-471.63327	836.62468	-537.58223	-310.45606	738.57883	-705.10304	-477.17459	833.54752	-634.82666	-171.24343	1213.00754	-613.64065	-119.32976	1152.64207	-451.87208	-104.93558	1128.70386	-756.84388	-99.07403	1086.27454	-583.57399	-103.66584	1081.18226	-615.13131	-114.93083	948.40317	-324.60596	-153.76201	834.24887	-334.39693	-123.68245	860.50413	-278.50581	10.25853	800.70416	-280.27860	101.65095	763.57314	-304.86945	86.25447	731.48369	-278.18059	-83.78077	919.61926	-856.97851	-101.14606	794.74663	-828.82539	-79.15436	812.50055	-886.14781	58.96685	762.39052	-855.24747	152.62563	739.91515	-810.44336	137.39251	696.56413	-813.79913	-390.17952	697.31324	-494.19008	-410.18576	696.05606	-683.80462	-384.21969	700.27933	-493.12979	-393.21520	695.28251	-651.02405	
206	2.05000000	-125.58853	435.57070	-392.42864	-153.07553	406.08630	-362.70989	-324.76149	101.15871	-405.12274	-394.54311	61.59165	-457.88218	-227.47720	39.84891	-344.47927	-176.63790	56.62645	-392.29710	-136.05075	438.23522	-786.43428	-123.31534	353.62877	-805.16509	-317.27470	100.21136	-764.33406	-392.20067	62.20937	-715.60873	-216.27983	39.56172	-800.27278	-166.88030	56.40131	-747.62972	-208.78937	304.58453	-356.68736	-86.82115	375.04667	-388.10334	-142.72895	274.58982	-402.27611	-196.32362	403.62063	-805.15038	-254.57494	296.19582	-801.52923	-251.03872	693.95972	-480.74591	-165.74341	625.59438	-453.48184	-171.79480	603.69617	-390.12653	-299.56632	667.42989	-382.82249	-220.17208	587.24202	-364.78001	-318.15915	688.16081	-771.76441	-229.57015	579.01340	-798.04944	-404.40930	615.78345	-764.20690	-312.28677	511.20688	-757.13100	-292.81654	771.83327	-465.94147	-468.44434	848.78308	-537.15719	-307.07009	752.01987	-705.22541	-474.47663	845.72398	-634.39834	-176.85289	1230.27827	-614.23077	-121.73770	1176.79140	-454.50166	-106.58442	1152.53980	-755.17657	-99.99203	1106.09605	-584.00704	-104.43715	1100.97675	-615.41509	-104.87082	978.10119	-320.28609	-136.47569	860.45772	-324.71063	-106.33067	892.14154	-270.77810	34.29847	852.71566	-280.51815	128.12430	830.89057	-311.15304	119.99859	796.83337	-283.57170	-75.38944	947.21445	-858.44399	-86.68101	819.20905	-832.96127	-64.40768	840.28515	-890.45051	77.89079	814.32536	-850.24570	170.79540	810.18517	-799.90958	163.61936	764.74106	-802.69248	-386.15298	709.93164	-493.95122	-406.42257	708.76513	-683.54045	-380.00411	712.92851	-492.19380	-389.83012	707.94588	-650.55575	
207	2.06000000	-128.58906	439.34024	-393.14196	-156.03047	409.33864	-363.29028	-324.54376	101.56225	-404.40214	-394.43404	62.15742	-458.01177	-227.41468	39.69031	-344.34549	-176.54693	56.40859	-392.20497	-140.14045	441.72887	-787.52345	-126.66288	356.74960	-806.39478	-317.23878	100.36225	-764.92707	-392.08226	62.54826	-715.81108	-216.17501	39.37766	-800.33383	-166.81428	56.35381	-747.88184	-210.57612	307.10397	-357.10050	-89.72470	378.87398	-389.46922	-144.45206	277.71405	-402.74144	-200.32464	405.74077	-805.69367	-257.18153	297.29267	-801.98602	-246.00296	702.68065	-480.16247	-163.25196	630.97863	-454.23370	-169.65596	608.90369	-390.80772	-295.64446	677.14453	-382.99765	-218.74386	593.98936	-365.69377	-315.15685	698.08318	-771.83515	-229.86298	586.63197	-798.62690	-403.25292	628.30765	-763.74771	-314.12940	521.02043	-756.70671	-288.50897	785.53492	-465.28678	-464.75502	861.21088	-536.99542	-303.37361	765.35414	-705.00863	-471.24335	858.14692	-634.05494	-182.45695	1247.85625	-614.34837	-124.13495	1201.98465	-457.35730	-108.28818	1177.93348	-752.58436	-100.51686	1126.50984	-583.99017	-104.80783	1121.26090	-615.33927	-95.07493	1009.91719	-316.32182	-119.37006	889.36164	-315.64507	-89.86113	926.56380	-263.65854	53.56048	908.06967	-281.77027	146.82294	901.69750	-318.91401	146.34539	867.16903	-290.49802	-66.96513	977.34336	-859.01573	-73.29615	847.32837	-836.70794	-50.72144	870.82190	-893.83513	91.26139	869.01798	-846.46819	180.14811	882.12064	-791.40385	181.29437	836.26688	-793.49690	-381.68979	723.05338	-493.45280	-402.25062	721.44955	-683.00524	-375.27741	725.78229	-491.20061	-385.88492	720.77454	-649.84636	
208	2.07000000	-132.23016	443.34627	-393.86677	-159.58995	412.65794	-363.96308	-324.41317	101.93403	-403.89431	-394.25102	62.97628	-457.99797	-227.31678	39.60250	-344.14621	-176.41910	56.22382	-392.14738	-144.30000	445.23405	-788.17135	-130.75675	360.31329	-807.61909	-317.22432	100.52108	-765.43584	-391.90397	63.00447	-715.92787	-216.07902	39.23237	-800.45444	-166.67887	56.32962	-748.11829	-212.94379	309.81351	-357.26292	-93.35931	383.04512	-390.61869	-146.45642	281.21220	-402.85689	-205.17414	408.39118	-805.85999	-260.42232	298.77665	-802.13322	-240.79683	711.33380	-480.01157	-160.81437	636.52187	-454.66732	-167.68751	614.29062	-391.24478	-291.27580	687.02474	-383.12851	-217.23202	600.58910	-366.79677	-311.82068	708.31131	-772.13017	-229.89293	594.41706	-799.25379	-401.71704	641.10331	-763.37712	-315.62221	531.45258	-757.56855	-283.55540	799.68358	-464.98177	-460.54322	873.99951	-536.87775	-299.19768	778.38675	-703.33940	-466.94304	870.77384	-633.48454	-187.90922	1265.98042	-613.81828	-126.35559	1227.97540	-460.38239	-110.21305	1205.08208	-749.01806	-100.65764	1147.43249	-583.53886	-104.73096	1142.07054	-615.05123	-85.96834	1043.81234	-313.25212	-102.99030	920.82221	-307.54258	-74.89487	963.22062	-257.69854	67.38324	965.75401	-284.13856	157.49011	974.41999	-327.48566	164.45001	940.70073	-298.52546	-59.37301	1010.12669	-859.19630	-60.79196	878.54830	-839.96638	-38.61718	904.56310	-897.12267	99.40831	924.81034	-843.41019	181.51300	953.28205	-784.62531	190.68389	908.66416	-786.57547	-376.73423	736.70955	-492.27588	-397.51894	733.97752	-681.78670	-370.22435	739.19883	-490.59432	-380.68566	733.93109	-648.44182	
209	2.08000000	-136.56406	447.43208	-394.61653	-164.06394	416.19918	-364.47974	-324.33832	102.34780	-403.27869	-393.58603	63.82035	-457.51729	-227.20951	39.50902	-343.98101	-176.26048	56.05821	-392.11284	-149.13690	449.46587	-789.08452	-135.49190	364.36276	-808.45472	-317.14929	100.80530	-766.12232	-391.67461	63.61163	-716.07670	-215.95598	39.12842	-800.61476	-166.47926	56.27940	-748.33649	-215.90069	312.77920	-357.10996	-97.69168	387.66128	-391.43820	-148.89268	284.97678	-402.72354	-210.66412	411.39375	-805.64031	-264.06710	300.66173	-802.18388	-235.05793	719.99624	-480.53141	-158.37382	642.10343	-454.89941	-166.11673	620.07547	-391.35020	-286.56939	697.21179	-383.39891	-216.02663	607.82149	-367.42303	-307.99695	718.86018	-772.68613	-229.67988	602.35432	-799.66649	-399.74936	654.29230	-762.74617	-316.95512	542.69039	-760.42996	-278.03700	814.33634	-464.80298	-455.78360	887.27554	-536.76791	-294.33324	791.90041	-701.38576	-461.69903	883.80700	-632.91950	-193.13291	1284.78907	-612.80535	-128.27455	1254.83340	-463.97208	-112.55682	1234.07772	-744.31210	-100.42754	1168.84543	-583.08203	-104.45287	1163.28935	-614.28365	-78.03100	1079.62912	-311.30688	-88.24765	954.98183	-299.67464	-62.06776	1001.87726	-252.91726	75.56061	1024.69727	-287.55080	159.97016	1047.09445	-336.59324	173.93391	1015.29378	-307.56581	-53.96376	1045.20632	-859.81469	-49.97676	912.24321	-843.04933	-28.97450	941.48039	-900.71439	102.72654	980.55239	-840.98921	176.12484	1021.76894	-779.34242	192.55811	979.55551	-781.76582	-371.16171	750.85744	-491.04560	-392.03562	746.96122	-680.52731	-364.81545	753.22816	-490.33133	-374.46753	747.57275	-647.14679	
210	2.09000000	-141.66973	452.05312	-394.92152	-169.55657	420.21967	-364.53071	-324.25690	102.86773	-402.31015	-392.54635	64.53498	-456.75965	-227.12093	39.35299	-343.95011	-176.06504	55.92503	-392.03118	-154.47745	454.37819	-789.89766	-140.59076	369.00978	-809.05749	-316.97299	101.29861	-767.16376	-391.41320	64.46569	-716.50393	-215.77695	39.01355	-800.79886	-166.20760	56.19897	-748.61203	-219.33043	315.81429	-356.94839	-102.81620	392.81838	-391.94382	-151.98220	289.08842	-402.47396	-216.23304	414.47514	-804.36407	-267.86320	302.79577	-802.10537	-228.64690	729.43647	-480.41257	-156.11503	647.77306	-455.01799	-164.85743	626.23406	-391.30428	-281.80468	708.16477	-383.68108	-215.14778	615.89391	-367.62265	-303.58990	729.69131	-773.12649	-229.32089	610.56876	-799.79212	-397.31453	668.21712	-761.80330	-318.36448	554.12956	-761.40437	-272.08077	829.70955	-464.39588	-450.46374	901.23959	-536.70079	-288.90911	806.35565	-700.45301	-456.22443	897.69519	-632.73857	-198.10248	1304.32313	-611.46355	-130.01363	1282.79930	-468.57047	-115.63985	1264.46267	-738.28227	-100.08286	1190.89835	-582.75196	-104.32658	1185.37886	-612.89203	-71.51177	1116.90567	-310.22748	-75.44884	991.47542	-292.56383	-51.72506	1042.20775	-249.11892	78.47502	1083.59739	-291.73522	154.96186	1117.67994	-346.05562	175.26018	1088.83761	-317.32742	-51.93753	1081.62973	-861.04384	-42.80177	948.38233	-847.00003	-22.60679	980.44596	-904.27908	101.56976	1035.65499	-839.66733	165.72716	1086.29911	-775.68972	188.25238	1047.44348	-778.74024	-365.09110	765.65937	-490.27527	-386.05106	760.89597	-679.72748	-358.76088	767.62807	-489.88050	-368.15370	761.84811	-646.44800	
